<svg width="321" height="224" viewBox="0 0 321 224" fill="none" xmlns="http://www.w3.org/2000/svg">
<path d="M96.2946 0.261963C96.7425 0.319886 97.1905 0.377808 98.3484 0.511658C117.363 1.38609 135.677 2.13707 152.382 11.415C152.461 11.5411 152.758 11.5452 152.936 11.8427C157.514 16.1922 161.914 20.2441 166.306 24.3069C166.298 24.3178 166.322 24.3068 166.372 24.6184C166.993 25.5253 167.562 26.1205 168.165 26.9032C168.198 27.0908 168.522 27.2916 168.554 27.6245C170.102 30.1381 171.618 32.3189 173.163 34.4512C173.192 34.4025 173.082 34.431 173.105 34.8032C176.088 44.1212 179.649 52.9253 181.795 62.0619C183.25 68.2531 182.716 74.9113 182.904 81.7354C182.688 83.1973 182.641 84.2844 182.405 85.7136C180.6 98.7925 176.376 110.573 169.292 121.309C169.3 121.318 169.281 121.304 168.974 121.434C157.876 134.722 143.531 141.392 125.327 144.244C132.952 147.241 133.982 152.995 135.929 158.442C138.251 164.935 141.432 171.12 144.268 177.683C144.295 177.929 144.634 178.289 144.631 178.595C145.121 179.527 145.614 180.153 146.104 180.949C146.102 181.117 146.379 181.31 146.397 181.661C148.931 185.556 151.447 189.101 154.076 192.554C154.19 192.463 153.931 192.598 154.008 192.93C155.751 195.121 157.418 196.979 159.152 199.086C159.605 199.652 159.99 199.971 160.46 200.608C161.692 201.945 162.839 202.964 164.036 204.14C164.214 204.499 164.397 204.609 164.784 204.945C172.104 210.886 179.276 216.511 186.683 222.32C170.785 222.32 155.152 222.156 139.526 222.397C132.879 222.5 126.889 220.854 121.865 216.79C117.25 213.058 112.688 209.006 109.064 204.347C97.0131 188.853 90.4446 170.726 85.1285 152.077C84.6795 150.502 84.3697 148.65 83.344 147.516C77.4541 141.002 71.3676 134.665 65.3244 128.294C65.301 128.32 65.3527 128.272 65.2665 127.948C60.4891 122.347 55.7978 117.07 50.1015 110.663C53.3768 110.663 55.1226 110.669 56.8684 110.662C74.6826 110.587 92.4997 110.672 110.309 110.347C116.792 110.229 123.183 108.911 128.317 104.33C128.301 104.317 128.322 104.352 128.655 104.29C141.159 94.3107 145.48 81.4632 142.201 66.3484C139.134 52.2068 129.7 43.9562 115.787 40.8954C111.603 39.9749 107.206 39.7207 102.904 39.6927C83.582 39.5671 64.2568 39.7931 44.9383 39.5168C40.1305 39.4481 38.83 40.7866 38.8443 45.593C39.0098 101.394 38.9511 157.196 38.9518 212.998C38.9519 215.931 38.9518 218.864 38.9518 222.314C25.5558 222.314 12.9306 222.314 0.305458 222.314C0.305458 222.314 0.299676 222.318 0.218926 221.853C0.0908588 220.724 0.00214464 220.061 0.00211364 219.398C-0.00205136 147.838 -0.00118239 76.2786 0.0150836 4.71906C0.0153736 3.43578 0.204185 2.15254 0.34272 0.389664C2.5275 0.389664 4.48769 0.392075 6.4479 0.389313C36.3968 0.34726 66.3457 0.304535 96.2946 0.261963Z" 
fill= "rgb(249 115 22)"/>
<path d="M150.236 0C178.215 0.107529 206.195 0.132141 234.173 0.350769C253.866 0.504654 271.984 5.62801 288.041 18.5709C293.362 24.7763 298.83 30.1921 302.948 36.4904C310.384 47.8622 312.668 60.9319 313.294 74.3185C313.209 75.073 313.123 75.8274 312.999 77.3511C310.512 110.847 293.881 132.655 264.973 140.949C261.528 141.937 257.998 142.627 253.468 143.702C255.844 144.555 257.177 145.246 258.588 145.503C264.425 146.568 267.341 150.105 269.345 155.669C275.529 172.832 285.668 187.651 298.294 200.705C305.408 208.06 313.029 214.924 320.663 222.24C317.678 222.521 314.932 222.779 312.187 223.037C304.553 222.955 296.92 222.873 288.465 222.758C285.644 222.697 283.645 222.665 281.646 222.643C260.366 222.408 260.256 222.486 247.857 204.983C233.384 184.551 223.618 161.747 214.863 138.453C214.062 136.321 213.027 134.102 211.529 132.44C205.064 125.265 198.386 118.283 191.93 111.008C192.17 110.637 192.266 110.489 192.826 110.367C207.568 110.382 221.855 110.685 236.123 110.289C260.26 109.62 276.028 88.8007 269.856 66.0757C269.714 65.3159 269.485 64.8277 269.265 63.9675C264.594 49.8429 253.901 41.2124 240.078 40.0178C238.983 39.7643 238.131 39.7223 236.825 39.5692C220.569 39.4295 204.766 39.2795 188.968 39.4655C185.41 39.5074 184.009 38.0805 182.265 35.1889C178.102 28.2851 173.21 21.8208 168.53 14.8928C167.72 13.9739 166.993 13.3411 166.097 12.4015C160.738 8.49355 155.547 4.89236 150.349 0.966293C150.306 0.427612 150.271 0.213806 150.236 0Z" 
fill="#4A4D60"/>
<path d="M186.465 211.982C182.329 208.815 178.193 205.647 173.641 202.061C172.266 200.835 171.305 200.027 170.345 199.219C164.994 192.334 159.642 185.45 153.974 178.041C153.249 177.019 152.839 176.521 152.43 176.022C148.704 167.275 144.978 158.527 141.117 149.461C160.948 142.683 175.028 131.135 183.672 112.814C184.366 112.605 184.747 112.675 185.127 112.745C185.173 115.003 185.219 117.262 185.425 119.92C186.384 134.265 187.135 148.215 187.998 162.157C188.831 175.616 189.78 189.068 190.843 202.922C191.051 205.88 191.242 208.452 191.044 210.992C190.982 211.775 189.857 212.475 188.644 212.891C187.534 212.373 186.999 212.177 186.465 211.982Z" 
fill= "#4A4D60"/>
</svg>
